<svg width="335" height="457" viewBox="0 0 335 457" fill="none" xmlns="http://www.w3.org/2000/svg">
<path d="M280.992 454.409C290.692 454.809 303.492 455.109 313.092 455.809C319.392 455.609 328.592 455.409 334.892 455.309C335.192 439.409 332.392 423.509 333.292 407.709C334.692 382.809 334.892 295.709 333.092 249.309C332.092 223.109 334.692 143.709 334.692 143.509C334.292 139.809 333.192 113.009 333.792 109.909C334.392 106.309 334.392 102.609 334.292 98.9087C334.192 95.9087 334.492 93.0087 334.292 90.0087C334.092 85.9087 334.892 0.00867099 334.892 0.00867099C332.692 -0.091329 329.592 0.708671 326.392 0.608671C320.392 0.308671 313.392 0.708671 307.292 0.608671C294.792 0.408671 282.392 1.10867 269.892 0.608671C256.992 0.108671 243.692 0.108671 230.792 0.208671C217.892 0.208671 205.092 0.508671 192.192 0.908671C166.192 1.50867 27.1917 2.60867 14.8917 0.00867099H0.0917027C0.0917027 12.5087 1.1917 32.9087 0.691703 49.5087C0.191703 65.9087 2.8917 82.2087 2.4917 98.5087C2.0917 112.609 2.4917 126.609 1.3917 140.609C1.2917 142.009 2.1917 155.509 2.0917 156.909L1.0917 201.209C2.3917 208.109 1.2917 261.209 1.0917 265.809C0.691703 276.409 0.291703 287.909 0.0917027 298.509C-0.108297 309.109 0.791703 320.709 0.991703 331.309C1.2917 353.009 1.2917 374.909 0.191703 396.609C-0.708297 414.109 1.8917 438.109 1.1917 455.609C1.1917 456.209 1.1917 455.009 1.0917 455.609C3.1917 455.709 5.1917 455.609 7.2917 455.609C13.2917 455.709 68.1917 454.809 71.1917 454.809C78.4917 454.909 85.7917 454.509 93.0917 454.009C95.5917 453.909 97.9917 453.709 100.492 453.609C104.392 453.409 108.192 453.809 112.092 453.909C123.692 454.409 135.292 454.709 146.892 455.209C152.992 455.409 159.092 455.709 165.092 456.009H264.292C263.592 455.009 275.992 454.209 280.992 454.409Z" fill="#E2E2DC"/>
</svg>
