<svg width="168" height="188" viewBox="0 0 168 188" fill="none" xmlns="http://www.w3.org/2000/svg">
<path d="M167.299 43.7864C167.099 35.6708 166.75 28.0356 167.499 21.2014V0.751967C156.072 1.49946 144.597 0.324826 133.121 1.2325C126.135 1.76643 119.15 1.01893 112.165 0.80536C105.179 0.59179 98.194 1.17911 91.2086 0.858753C84.3231 0.538397 77.3876 0.80536 70.4522 0.912145C63.6165 1.01893 56.8806 0.271434 50.0949 0.912145C36.9724 2.19357 5.3388 -0.903205 0 0.271434C0.249476 1.17911 0.598744 13.2458 0.349267 16.9299C0.149686 19.8665 0.598744 22.8031 0.349267 25.7397C0 30.1713 0.249476 34.6029 0.349267 39.0345C0.449058 44.1068 0.84822 49.2325 0.349267 54.3048C0.149686 56.3337 0.598744 58.416 0.349267 60.445V83.1368C0.399162 83.297 0.449058 83.5106 0.498953 83.6708C1.0478 85.9133 0.598744 88.1557 0.84822 90.4516C1.14759 92.9077 1.14759 95.3638 1.19749 97.8732C1.34717 106.79 0.598744 132.045 0.648639 133.486C0.698534 135.141 0.798325 136.796 0.898115 138.452C1.0977 141.495 1.29728 144.538 1.34717 147.582C1.39707 150.572 1.19749 153.615 0.948011 156.605C0.548848 161.41 0.997906 166.323 0.349267 171.181V187.573C2.04571 187.519 3.74215 187.573 5.38869 187.573C8.93126 187.573 12.5237 187.573 16.0663 187.573C20.3573 187.573 24.6982 187.519 28.9892 187.359C33.2303 187.252 37.4714 186.986 41.6626 186.986C45.8538 186.986 50.045 187.253 54.1863 187.466C58.2278 187.733 62.2693 187.413 66.3607 187.413C70.4023 187.413 106.576 187.039 120.647 188H132.572C133.62 187.947 134.667 187.84 135.715 187.786C140.605 187.466 154.925 187.573 162.409 188H167.499C167.499 188 167 170.861 166.8 167.551C166.65 164.347 166.7 161.09 166.501 157.887C166.301 154.469 166.251 150.999 166.351 147.582C166.451 145.126 166.85 130.229 167.099 128.147C167.299 126.598 167.399 124.997 167.449 123.395V117.735C167.399 115.226 167.299 112.663 167.299 110.154C167.299 106.149 167.499 102.198 167.349 98.1936C167.149 93.3348 166.8 88.4761 166.351 83.6174C166.151 81.3215 166.251 79.079 166.501 76.7831C166.75 74.5406 167 72.2447 166.7 70.0022C166.451 67.8665 167.499 53.6107 167.299 43.7864Z" fill="#E2E2DC"/>
</svg>
