<svg width="690" height="782" viewBox="0 0 690 782" fill="none" xmlns="http://www.w3.org/2000/svg">
<path d="M689.178 182.133C688.356 148.375 686.917 116.616 690 88.1886V0C642.931 3.10927 595.657 1.35114 548.382 5.12668C519.607 7.34759 490.831 4.23832 462.055 3.34996C433.28 2.46159 404.504 4.90459 375.728 3.57205C347.364 2.2395 318.794 3.34996 290.223 3.79414C262.064 4.23832 234.316 1.12905 206.363 3.79414C152.306 9.12431 21.9928 -3.75695 0 1.12905C1.0277 4.90459 2.46649 55.0971 1.43878 70.4214C0.616622 82.6363 2.46649 94.8513 1.43878 107.066C0 125.5 1.0277 143.933 1.43878 162.367C1.84987 183.466 3.49419 204.786 1.43878 225.885C0.616622 234.324 2.46649 242.986 1.43878 251.425V345.814C1.64433 346.48 1.84987 347.368 2.05541 348.035C4.31635 357.363 2.46649 366.69 3.49419 376.24C4.72744 386.456 4.72744 396.673 4.93298 407.111C5.5496 444.2 2.46649 549.249 2.67203 555.245C2.87757 562.13 3.28865 569.015 3.69973 575.9C4.52189 588.559 5.34406 601.218 5.5496 613.877C5.75514 626.314 4.93298 638.974 3.90527 651.411C2.26095 671.399 4.11081 691.831 1.43878 712.041V780.223C8.42717 780.001 15.4155 780.223 22.1984 780.223C36.7918 780.223 51.5907 780.223 66.1841 780.223C83.8606 780.223 101.743 780.001 119.419 779.335C136.89 778.891 154.361 777.78 171.626 777.78C188.892 777.78 206.157 778.891 223.217 779.779C239.866 780.89 256.515 779.557 273.369 779.557C290.018 779.557 439.035 778.002 496.997 782H546.122C550.438 781.778 554.754 781.334 559.071 781.112C579.214 779.779 638.204 780.223 669.035 782H690C690 782 687.945 710.709 687.122 696.939C686.506 683.614 686.711 670.066 685.889 656.741C685.067 642.527 684.861 628.091 685.273 613.877C685.684 603.661 687.328 541.698 688.356 533.036C689.178 526.596 689.589 519.933 689.794 513.27V489.729C689.589 479.29 689.178 468.63 689.178 458.192C689.178 441.535 690 425.1 689.383 408.443C688.561 388.233 687.122 368.023 685.273 347.813C684.45 338.263 684.862 328.935 685.889 319.385C686.917 310.057 687.945 300.507 686.711 291.18C685.684 282.296 690 222.998 689.178 182.133Z" fill="#E2E2DC"/>
</svg>
